<svg width="64" height="64" viewBox="0 0 64 64" fill="none" xmlns="http://www.w3.org/2000/svg">
<circle cx="32" cy="32" r="32" fill="#39C290"/>
<path fill-rule="evenodd" clip-rule="evenodd" d="M17.9477 6C18.5567 6 19.0505 6.49373 19.0505 7.10278V9.44809C25.3775 9.476 37.1444 9.45104 42.901 9.43251C43.51 9.43055 44.0053 9.92269 44.0073 10.5317C44.0092 11.1408 43.5171 11.6361 42.9081 11.6381C37.1612 11.6566 25.3961 11.6816 19.0505 11.6537V14.4127C19.0505 15.0218 18.5567 15.5155 17.9477 15.5155C17.3387 15.5155 16.8449 15.0218 16.8449 14.4127V11.6397C16.7844 11.6391 16.725 11.6386 16.6668 11.638C15.1682 11.6233 14.2293 11.8865 13.6303 12.2468C13.057 12.5916 12.6973 13.0837 12.464 13.7528C12.2201 14.4524 12.1236 15.3224 12.1006 16.3631C12.0867 16.9893 12.0983 17.5968 12.1106 18.2349C12.1194 18.6972 12.1286 19.1755 12.1286 19.6886C12.1286 21.2414 13.0965 22.7804 14.4834 24.0693C15.8675 25.3557 17.4392 26.1775 18.218 26.3744C18.8085 26.5237 19.1661 27.1234 19.0168 27.7139C18.8675 28.3044 18.2678 28.662 17.6773 28.5127C16.4452 28.2011 14.556 27.1477 12.9819 25.6849C11.4106 24.2246 9.92304 22.1405 9.92305 19.6886C9.92305 19.2732 9.91494 18.8235 9.90666 18.365C9.89415 17.6719 9.88128 16.9588 9.89555 16.3143C9.92013 15.2043 10.0221 14.0571 10.3814 13.0266C10.7514 11.9655 11.3999 11.0145 12.4935 10.3567C13.5615 9.71441 14.9484 9.41548 16.6884 9.43256C16.7397 9.43306 16.7919 9.43356 16.8449 9.43404V7.10278C16.8449 6.49373 17.3387 6 17.9477 6ZM48.6826 41.9831C48.6826 41.546 48.6443 41.0785 48.5743 40.6138C48.4163 39.5664 48.0723 38.367 47.4682 37.295C46.8636 36.2222 45.9595 35.2123 44.661 34.6836C43.3431 34.1471 41.7812 34.172 40.0066 34.8718C39.44 35.0952 39.1618 35.7356 39.3852 36.3022C39.6086 36.8688 40.2491 37.147 40.8157 36.9236C42.1844 36.3838 43.1468 36.4485 43.8293 36.7264C44.5311 37.0121 45.1035 37.5914 45.5467 38.3778C45.9904 39.1651 46.2656 40.0951 46.3934 40.9427C46.5267 41.827 46.4771 42.4634 46.4067 42.6904C46.3029 43.025 46.3644 43.3891 46.5722 43.6712C46.7801 43.9532 47.1096 44.1197 47.46 44.1197C48.4626 44.1197 49.3482 44.261 50.0502 44.7171C50.7104 45.1462 51.3702 45.9616 51.709 47.663C51.9136 48.9203 51.7301 49.8287 51.3861 50.4909C51.0371 51.1626 50.4743 51.6743 49.7736 52.0467C48.9988 52.4584 48.1088 52.6712 47.2959 52.7403C47.4694 52.4041 47.6149 52.0405 47.7123 51.6561C47.875 51.0136 47.908 50.2903 47.6839 49.5496C47.4586 48.8045 46.9954 48.1159 46.2835 47.5142C46.2761 47.5079 46.2686 47.5017 46.261 47.4956C44.4216 46.0227 42.5946 45.6812 40.7785 46.0999C39.0687 46.4941 37.4451 47.5493 35.9108 48.6311C35.5952 48.8536 35.2808 49.0786 34.9665 49.3036C32.0839 51.3669 29.2163 53.4194 25.5681 53.4194C23.9939 53.4194 22.8293 52.9888 21.95 52.3364C21.0589 51.6754 20.3947 50.737 19.918 49.6289C18.953 47.3855 18.8345 44.6224 19.0436 42.7585C19.1115 42.1533 18.6759 41.6076 18.0706 41.5397C17.4654 41.4718 16.9197 41.9074 16.8518 42.5126C16.6164 44.6109 16.7265 47.7912 17.892 50.5005C18.4806 51.8688 19.3571 53.1591 20.6359 54.1078C21.9264 55.0651 23.5607 55.625 25.5681 55.625C29.9719 55.625 33.4359 53.1284 36.2428 51.1055C36.5642 50.8739 36.8771 50.6484 37.1817 50.4336C38.7353 49.3383 40.0368 48.5343 41.2739 48.2491C42.4015 47.9892 43.5398 48.1466 44.8705 49.2077C45.2942 49.5687 45.4874 49.9056 45.5728 50.1881C45.6603 50.4774 45.6576 50.7855 45.5743 51.1145C45.3984 51.8088 44.889 52.4824 44.4516 52.8773C44.151 53.1487 44.0234 53.563 44.1191 53.9565C44.2148 54.35 44.5185 54.6594 44.9102 54.7624C46.4123 55.1574 48.8411 55.0399 50.8086 53.9943C51.8173 53.4582 52.7473 52.6549 53.3433 51.5077C53.9426 50.354 54.156 48.9447 53.8823 47.2869C53.8819 47.2845 53.8815 47.282 53.8811 47.2796C53.8796 47.2708 53.878 47.262 53.8762 47.2532C53.4519 45.1013 52.5263 43.6959 51.2519 42.8677C50.4287 42.3328 49.5318 42.0873 48.6826 41.9831Z" fill="white"/>
<path fill-rule="evenodd" clip-rule="evenodd" d="M39.9181 35.51C40.2976 35.0673 40.9641 35.016 41.4069 35.3955C43.1588 36.8971 43.7598 38.9114 43.268 40.682C42.7772 42.4491 41.2402 43.7946 39.1354 44.0051C37.4102 44.1776 36.2682 44.1848 35.3675 44.0767C34.5223 43.9753 33.9225 43.7741 33.3481 43.5813C33.3006 43.5654 33.2533 43.5496 33.2061 43.5338C32.6529 43.3494 32.354 42.7515 32.5384 42.1983C32.7228 41.6451 33.3207 41.3461 33.8739 41.5305C33.9163 41.5447 33.9578 41.5585 33.9985 41.5721C34.5791 41.7663 34.9942 41.9051 35.6191 41.9801C36.3022 42.0621 37.2719 42.0693 38.9253 41.9039C40.1992 41.7765 40.9852 41.0104 41.2334 40.1168C41.4806 39.2266 41.237 38.0311 40.0326 36.9988C39.5899 36.6193 39.5386 35.9527 39.9181 35.51Z" fill="white"/>
<path fill-rule="evenodd" clip-rule="evenodd" d="M23.4659 17.0518C23.2163 17.3984 23.1223 17.8475 23.1223 18.1305V23.093C23.1223 23.7021 22.6286 24.1958 22.0195 24.1958C21.4105 24.1958 20.9167 23.7021 20.9167 23.093V18.1305C20.9167 17.4946 21.0985 16.5652 21.676 15.7631C22.294 14.9048 23.3143 14.2708 24.7765 14.2708C26.2331 14.2708 27.2704 14.8975 27.9299 15.7151C28.555 16.4902 28.8156 17.3992 28.8707 18.0354L28.8712 18.0415L28.8712 18.0415C28.9115 18.5382 29.1087 19.3032 29.5334 19.9116C29.9283 20.4772 30.4944 20.8875 31.3931 20.8875C31.9748 20.8875 32.2622 20.7294 32.459 20.5572C32.7094 20.3381 32.8996 20.026 33.1926 19.5133C33.2023 19.4963 33.2121 19.4791 33.2221 19.4616C33.4784 19.0124 33.8337 18.3894 34.3888 17.9037C35.0192 17.3521 35.8346 17.0278 36.907 17.0278C37.8931 17.0278 38.6489 17.2358 39.2525 17.6569C39.7655 18.0148 40.0912 18.4867 40.3014 18.7912C40.3222 18.8214 40.342 18.85 40.3606 18.8766C40.59 19.2043 40.7348 19.3764 40.9554 19.5062C41.1748 19.6352 41.5842 19.7847 42.4209 19.7847C43.0299 19.7847 43.5237 20.2784 43.5237 20.8875C43.5237 21.4965 43.0299 21.9902 42.4209 21.9902C41.3277 21.9902 40.4965 21.7951 39.8371 21.4072C39.179 21.0201 38.8069 20.503 38.5538 20.1414L38.5513 20.1379C38.2772 19.7464 38.167 19.5888 37.9905 19.4657C37.8531 19.3699 37.5751 19.2333 36.907 19.2333C36.3253 19.2333 36.0379 19.3914 35.8412 19.5635C35.5908 19.7826 35.4005 20.0948 35.1076 20.6075C35.0979 20.6245 35.088 20.6417 35.0781 20.6592C34.8218 21.1084 34.4664 21.7314 33.9113 22.2171C33.281 22.7687 32.4656 23.093 31.3931 23.093C29.6452 23.093 28.4529 22.2168 27.725 21.1741C27.028 20.1758 26.7378 19.0131 26.6732 18.2233C26.6482 17.9404 26.5137 17.4724 26.2131 17.0998C25.9461 16.7687 25.5254 16.4764 24.7765 16.4764C24.0331 16.4764 23.6749 16.7614 23.4659 17.0518Z" fill="white"/>
<path fill-rule="evenodd" clip-rule="evenodd" d="M26.8052 26.3536C26.6019 26.0396 26.2534 25.8499 25.8793 25.8499C25.5052 25.8499 25.1567 26.0396 24.9534 26.3536L19.3396 35.0296L26.0438 39.2198L32.2581 34.7809L26.8052 26.3536ZM32.8865 36.8998L26.6897 41.3261C26.3457 41.5719 25.8874 41.586 25.5288 41.3619L19.199 37.4057L24.9534 46.299C25.1567 46.6131 25.5052 46.8027 25.8793 46.8027C26.2534 46.8027 26.6019 46.6131 26.8052 46.299L32.8704 36.9254C32.8759 36.9169 32.8813 36.9084 32.8865 36.8998Z" fill="white"/>
</svg>
